<?xml version="1.0" encoding="utf-8"?>
<!-- Generator: Adobe Illustrator 24.0.1, SVG Export Plug-In . SVG Version: 6.00 Build 0)  -->
<svg version="1.1" id="Layer_1" xmlns="http://www.w3.org/2000/svg" xmlns:xlink="http://www.w3.org/1999/xlink" x="0px" y="0px"
	 width="612px" height="270px" viewBox="0 0 612 270" style="enable-background:new 0 0 612 270;" xml:space="preserve">
<style type="text/css">
	.st0{fill:url(#SVGID_1_);}
	.st1{fill:url(#SVGID_2_);}
	.st2{fill:#181831;}
</style>
<g>
	<g>
		<linearGradient id="SVGID_1_" gradientUnits="userSpaceOnUse" x1="401.1056" y1="6.4577" x2="558.4742" y2="204.7422">
			<stop  offset="0" style="stop-color:#30398F"/>
			<stop  offset="0.1288" style="stop-color:#354092"/>
			<stop  offset="0.3139" style="stop-color:#41539D"/>
			<stop  offset="0.5331" style="stop-color:#5572AE"/>
			<stop  offset="0.7762" style="stop-color:#729DC6"/>
			<stop  offset="1" style="stop-color:#90CBE0"/>
		</linearGradient>
		<path class="st0" d="M446.18,44.68c0.16,2.51,3.5,4.67,7.25,4.78l0.14,0c0.08,0,0.15,0,0.23,0c0.04,0,0.07,0,0.1,0l0.14,0
			c3.76,0.12,6.7-1.88,6.79-4.43c0.09-2.55-2.87-4.66-6.85-4.75l-0.17,0c-0.07,0-0.15,0-0.22,0c-0.06,0-0.12,0-0.18,0l-0.17,0
			c-0.04,0-0.07,0-0.1,0C449.24,40.24,446.02,42.18,446.18,44.68 M433.13,40.84l-0.16,0.01c-3.89,0.3-6.29,2.5-5.24,4.97
			c1.05,2.47,4.93,4.29,8.54,4.01l0.14-0.01c3.62-0.27,5.81-2.55,5.04-5.04c-0.71-2.29-3.85-3.94-7.36-3.98
			C433.77,40.81,433.45,40.82,433.13,40.84 M465.58,45.4c-0.69,2.52,1.96,5,5.66,5.52h0l0.14,0.02c3.7,0.52,7.16-1.15,8-3.72
			c0.83-2.57-1.37-5.01-5.21-5.48l-0.16-0.02c-0.41-0.05-0.82-0.08-1.22-0.08C469.38,41.61,466.19,43.16,465.58,45.4 M413.92,43.28
			l-0.15,0.03c-3.55,0.65-4.88,3.07-2.94,5.45c1.94,2.38,6.18,3.83,9.43,3.2l0.13-0.03c3.26-0.63,4.54-3.13,2.9-5.52
			c-1.35-1.97-4.42-3.25-7.45-3.28C415.19,43.11,414.54,43.17,413.92,43.28 M483.9,48.09c-1.41,2.47,0.52,5.23,4.02,6.17l0.13,0.04
			c3.5,0.94,7.27-0.35,8.73-2.87c1.45-2.52,0.01-5.27-3.53-6.16l-0.15-0.04c-0.73-0.18-1.49-0.27-2.24-0.28
			C487.94,44.92,485.02,46.13,483.9,48.09 M397.07,47.49l-0.13,0.04c-2.97,0.98-3.1,3.56-0.37,5.82c2.74,2.25,7.09,3.33,9.79,2.35
			l0.1-0.04c2.7-0.98,2.94-3.64,0.48-5.9c-1.8-1.65-4.65-2.62-7.22-2.65C398.78,47.1,397.87,47.23,397.07,47.49 M500.93,52.81
			c-1.98,2.36-0.74,5.37,2.44,6.72l0.12,0.05c3.19,1.36,7.09,0.52,9.02-1.89c1.91-2.41,1.17-5.44-1.97-6.74l-0.13-0.06
			c-0.97-0.4-2.05-0.6-3.14-0.61C504.81,50.26,502.29,51.18,500.93,52.81 M383.77,53.34l-0.09,0.05c-2.18,1.28-1.1,3.98,2.26,6.08
			c3.37,2.09,7.58,2.78,9.54,1.48l0.08-0.05c1.96-1.29,1.12-4.07-2.03-6.15c-2-1.33-4.54-2.06-6.67-2.08
			C385.64,52.66,384.56,52.87,383.77,53.34 M516.17,59.59c-2.36,2.19-1.77,5.38,1.05,7.15h0l0.11,0.06c2.82,1.78,6.72,1.43,8.95-0.8
			c2.23-2.23,2.05-5.47-0.64-7.2l-0.11-0.07c-1.11-0.71-2.5-1.06-3.9-1.07C519.6,57.64,517.55,58.31,516.17,59.59 M374.9,60.68
			l-0.05,0.07c-1.25,1.56,0.95,4.33,4.74,6.23c3.78,1.9,7.6,2.2,8.71,0.62l0.04-0.06c1.11-1.58-0.79-4.42-4.43-6.29
			c-1.99-1.03-4.13-1.57-5.86-1.58C376.62,59.64,375.47,59.98,374.9,60.68 M529.42,68.42c-2.6,1.95-2.55,5.24-0.11,7.41l0.09,0.09
			c2.44,2.17,6.22,2.36,8.64,0.38c2.41-1.98,2.69-5.35,0.43-7.48l-0.1-0.09c-1.17-1.1-2.84-1.67-4.53-1.68
			C532.27,67.02,530.67,67.48,529.42,68.42 M371.02,69.38l-0.01,0.08c-0.25,1.81,2.93,4.6,6.89,6.27c3.96,1.68,7.16,1.58,7.36-0.25
			l0-0.07c0.2-1.83-2.64-4.68-6.55-6.33c-1.79-0.76-3.51-1.13-4.86-1.15C372.26,67.91,371.16,68.4,371.02,69.38 M540.71,79.18
			c-2.72,1.63-3.12,4.95-1.05,7.48l0.08,0.1c2.07,2.52,5.68,3.28,8.18,1.64c2.51-1.64,3.13-5.04,1.26-7.56l-0.08-0.11
			c-1.17-1.57-3.1-2.42-5.05-2.43C542.9,78.28,541.73,78.57,540.71,79.18 M372.29,79.26l0.03,0.09c0.74,2.02,4.66,4.78,8.55,6.21
			c3.9,1.43,6.32,0.95,5.61-1.11v0l-0.03-0.08c-0.71-2.05-4.32-4.86-8.24-6.25c-1.46-0.52-2.75-0.77-3.76-0.78
			C372.74,77.32,371.83,78,372.29,79.26 M378.48,90.16l0.07,0.09c1.65,2.19,6.03,4.88,9.64,6.03c3.61,1.15,5.15,0.28,3.6-1.95
			l-0.06-0.09c-1.55-2.24-5.69-4.96-9.4-6.06c-1.06-0.32-1.96-0.47-2.67-0.48C377.88,87.7,377.3,88.6,378.48,90.16 M550.14,91.69
			c-2.75,1.24-3.52,4.49-1.8,7.3v0l0.06,0.11c1.72,2.82,5.1,4.16,7.65,2.93c2.55-1.23,3.45-4.55,1.94-7.38l-0.06-0.12
			c-1.11-2.07-3.29-3.3-5.46-3.32C551.67,91.21,550.88,91.36,550.14,91.69 M404.87,111.56l0.08,0.08c1.95,1.89,5.65,3.98,8.19,4.66
			c2.55,0.69,3.07-0.31,1.24-2.24l-0.07-0.07c-1.83-1.93-5.41-4.02-8.07-4.68c-0.53-0.13-0.99-0.2-1.36-0.2
			C403.42,109.1,403.32,110.05,404.87,111.56 M388.96,101.88l0.1,0.1c2.41,2.33,6.97,4.9,10.1,5.75c3.14,0.85,3.78-0.38,1.53-2.76
			l-0.09-0.09c-2.25-2.38-6.67-4.96-9.95-5.77c-0.66-0.16-1.22-0.24-1.67-0.25C387.16,98.85,387.04,100.02,388.96,101.88
			 M557.82,105.67c-2.74,0.77-3.82,3.84-2.45,6.88l0.05,0.12c1.37,3.04,4.49,4.94,7.04,4.2c2.54-0.74,3.69-3.87,2.51-6.94
			l-0.05-0.13c-0.98-2.57-3.39-4.27-5.76-4.3C558.71,105.49,558.26,105.55,557.82,105.67 M563.81,120.73
			c-2.69,0.26-4.04,3.02-3.03,6.19l0.04,0.12c1.01,3.17,3.84,5.58,6.35,5.37c2.51-0.21,3.89-3.01,3.06-6.22l-0.04-0.13
			c-0.79-3.03-3.38-5.31-5.93-5.34C564.11,120.71,563.96,120.72,563.81,120.73 M564.52,141.63l0.02,0.12
			c0.64,3.18,3.12,6.04,5.55,6.37c2.43,0.34,4.03-2.02,3.56-5.26l-0.02-0.13c-0.47-3.23-2.96-6.08-5.56-6.36
			c-0.13-0.01-0.25-0.02-0.37-0.02C565.32,136.33,563.91,138.6,564.52,141.63 M566.54,156.18l0.01,0.12
			c0.26,3.09,2.32,6.29,4.61,7.15c2.3,0.87,4.08-0.96,4-4.1l0-0.13c-0.09-3.14-2.15-6.35-4.61-7.17c-0.38-0.13-0.75-0.19-1.09-0.19
			C567.57,151.83,566.32,153.57,566.54,156.18 M465.61,161.27c-0.22,0.83,2.16,3.4,5.09,5.79l0.12,0.1
			c2.93,2.39,5.32,3.71,5.55,2.92c0.22-0.79-1.82-3.42-4.77-5.84l-0.11-0.09c-2.33-1.92-4.52-3.11-5.44-3.12
			C465.81,161.02,465.65,161.1,465.61,161.27 M566.78,170.02l-0.01,0.11c-0.13,2.89,1.46,6.31,3.54,7.68
			c2.08,1.37,4.01,0.14,4.32-2.78l0.01-0.12c0.31-2.92-1.25-6.4-3.51-7.73c-0.6-0.35-1.17-0.52-1.7-0.53
			C567.97,166.63,566.88,167.89,566.78,170.02 M477.98,171.16c0.18,1.14,2.55,3.87,5.07,6.14l0.11,0.1c2.53,2.26,4.34,3.22,4.26,2.1
			c-0.09-1.11-2.13-3.91-4.76-6.2l-0.1-0.09c-1.85-1.61-3.46-2.54-4.18-2.54C478.07,170.67,477.92,170.83,477.98,171.16
			 M565.25,182.68L565.25,182.68l-0.02,0.1c-0.5,2.58,0.59,6.11,2.37,7.92c1.78,1.82,3.76,1.22,4.46-1.38l0.03-0.11
			c0.7-2.6-0.31-6.2-2.29-8c-0.75-0.67-1.51-1-2.19-1.01C566.48,180.2,565.56,181.07,565.25,182.68 M490.34,182.22
			c0.42,1.45,2.59,4.28,4.66,6.38l0.09,0.09c2.08,2.1,3.43,2.67,3.19,1.24c-0.24-1.43-2.14-4.34-4.4-6.45h0l-0.09-0.08
			c-1.39-1.3-2.53-1.99-3.11-1.99C490.32,181.39,490.18,181.66,490.34,182.22 M500.71,192.4c0.5,1.73,2.34,4.63,3.99,6.51l0.07,0.08
			c1.64,1.88,2.7,2.05,2.44,0.32c-0.26-1.72-1.93-4.7-3.83-6.59l-0.07-0.07c-0.99-0.98-1.79-1.48-2.26-1.49
			C500.62,191.15,500.47,191.57,500.71,192.4 M562.12,193.75l-0.03,0.08c-0.82,2.2-0.24,5.71,1.19,7.89
			c1.43,2.18,3.33,2.21,4.37,0.01l0.04-0.09c1.03-2.19,0.61-5.79-1.03-7.97c-0.8-1.07-1.71-1.6-2.52-1.61
			C563.28,192.06,562.53,192.63,562.12,193.75 M509.18,201.48c0.46,2,1.9,4.89,3.21,6.52l0.06,0.07c1.3,1.62,2.21,1.36,2.03-0.65
			c-0.18-2-1.6-4.98-3.19-6.6l-0.06-0.06c-0.68-0.69-1.23-1.02-1.61-1.03C509.11,199.73,508.92,200.34,509.18,201.48 M557.69,202.92
			l-0.04,0.07c-1.06,1.76-0.93,5.15,0.1,7.6c1.04,2.45,2.76,3.07,4.02,1.34l0.05-0.08c1.25-1.74,1.39-5.2,0.15-7.67
			c-0.75-1.49-1.76-2.28-2.69-2.29C558.68,201.88,558.11,202.22,557.69,202.92 M516.12,209.25c0.34,2.23,1.42,5.07,2.5,6.4
			l0.05,0.06c1.08,1.32,1.99,0.61,1.94-1.64c-0.05-2.25-1.27-5.18-2.64-6.48l-0.05-0.04c-0.45-0.43-0.83-0.63-1.13-0.63
			C516.17,206.9,515.89,207.75,516.12,209.25 M552.37,209.98l-0.05,0.05c-1.21,1.3-1.46,4.45-0.8,7.09
			c0.67,2.64,2.12,3.79,3.49,2.54l0.05-0.05c1.37-1.25,1.98-4.47,1.15-7.15c-0.59-1.9-1.68-3.01-2.7-3.02
			C553.11,209.43,552.72,209.61,552.37,209.98 M522.04,215.47c0.19,2.43,1.01,5.16,2,6.14l0.04,0.04c0.99,0.98,2.01-0.18,2.06-2.65
			c0.07-2.47-1.04-5.27-2.29-6.21l-0.05-0.04c-0.28-0.22-0.54-0.32-0.76-0.32C522.29,212.43,521.9,213.59,522.04,215.47
			 M546.59,214.84l-0.05,0.03c-1.27,0.81-1.79,3.67-1.44,6.4c0.35,2.73,1.51,4.34,2.88,3.59l0.05-0.03
			c1.36-0.76,2.32-3.65,1.87-6.43c-0.36-2.28-1.51-3.75-2.61-3.76C547.05,214.62,546.82,214.69,546.59,214.84 M527.51,219.96
			c0.08,2.59,0.76,5.15,1.79,5.75l0.05,0.03c1.02,0.6,2.16-1.02,2.26-3.65c0.11-2.63-0.98-5.25-2.19-5.8l-0.04-0.02
			c-0.15-0.07-0.3-0.11-0.44-0.11C527.99,216.15,527.46,217.71,527.51,219.96 M540.72,217.46l-0.05,0.01
			c-1.27,0.33-1.94,2.83-1.8,5.57c0.14,2.74,1.03,4.75,2.31,4.48l0.05-0.01c1.27-0.27,2.43-2.78,2.27-5.58
			c-0.13-2.59-1.32-4.5-2.5-4.51C540.91,217.42,540.81,217.44,540.72,217.46 M533.02,222.56c0.06,2.7,0.77,5.02,1.91,5.2l0.05,0.01
			c1.14,0.18,2.34-1.89,2.37-4.64c0.05-2.75-1.15-5.1-2.38-5.22v0l-0.04,0c-0.03,0-0.07,0-0.1,0
			C533.66,217.88,532.98,219.94,533.02,222.56"/>
		<linearGradient id="SVGID_2_" gradientUnits="userSpaceOnUse" x1="404.764" y1="3.5541" x2="562.1328" y2="201.8387">
			<stop  offset="0" style="stop-color:#30398F"/>
			<stop  offset="0.1288" style="stop-color:#354092"/>
			<stop  offset="0.3139" style="stop-color:#41539D"/>
			<stop  offset="0.5331" style="stop-color:#5572AE"/>
			<stop  offset="0.7762" style="stop-color:#729DC6"/>
			<stop  offset="1" style="stop-color:#90CBE0"/>
		</linearGradient>
		<path class="st1" d="M458.96,21.6h-0.23c-0.04,0-0.08,0-0.13,0c-0.12,0-0.24,0-0.36,0h-0.23c-5.43-0.01-10.81,2.28-11.62,5.18
			c-0.81,2.9,2.95,5.36,8,5.42l0.19,0c0.09,0,0.18,0,0.26,0c0.05,0,0.1,0,0.14,0l0.19,0c5.06,0.08,9.81-2.31,11.04-5.27
			c1.2-2.92-1.79-5.26-7.12-5.33L458.96,21.6z M472.55,27.26c-2.04,2.92,0.63,5.77,5.44,6.32l0.19,0.02
			c4.83,0.55,10.17-1.48,12.43-4.48c2.26-3,0.43-5.76-4.62-6.23l-0.22-0.02c-0.45-0.04-0.91-0.06-1.38-0.07
			C479.67,22.75,474.4,24.6,472.55,27.26 M430.13,22.6l-0.23,0.02c-5.46,0.41-9.66,2.98-9.13,5.82c0.53,2.84,5.2,4.89,10.18,4.51
			l0.19-0.02c4.99-0.38,8.79-3.07,8.75-5.94c-0.04-2.58-3.48-4.4-8.15-4.44C431.22,22.54,430.68,22.56,430.13,22.6 M496.42,30.03
			c-3.01,2.89-1.45,6.1,2.92,7.15l0.17,0.04c4.38,1.04,9.96-0.55,13.02-3.53c3.04-2.98,2.38-6.14-2.04-7.1l-0.19-0.04
			c-0.83-0.18-1.74-0.27-2.69-0.28C503.55,26.23,498.84,27.69,496.42,30.03 M402.86,25.75l-0.22,0.03
			c-5.09,0.82-7.75,3.62-5.86,6.36c1.89,2.73,7.2,4.36,11.79,3.56h0l0.18-0.03c4.6-0.8,7.13-3.74,5.76-6.49
			c-1.1-2.21-4.68-3.61-8.69-3.65C404.84,25.52,403.85,25.59,402.86,25.75 M378.5,30.91l-0.18,0.05c-4.33,1.19-5.23,4.19-2.11,6.79
			c3.13,2.59,8.72,3.78,12.58,2.58l0.15-0.04c3.87-1.2,4.91-4.33,2.26-6.91c-1.88-1.84-5.34-2.91-8.74-2.94
			C381.1,30.42,379.75,30.57,378.5,30.91 M517.58,35.24c-3.67,2.8-3.14,6.34,0.66,7.89l0.14,0.06c3.81,1.56,9.35,0.49,12.9-2.41
			c3.53-2.89,3.85-6.43,0.17-7.9l-0.16-0.06c-1.07-0.43-2.38-0.64-3.78-0.65C524.13,32.13,520.17,33.26,517.58,35.24 M358.98,37.96
			l-0.14,0.07c-3.24,1.54-2.33,4.69,1.79,7.1c4.12,2.41,9.6,3.16,12.45,1.59l0.11-0.06c2.86-1.56,2.31-4.82-1.42-7.21
			c-2.32-1.49-5.45-2.29-8.27-2.32C361.79,37.11,360.2,37.38,358.98,37.96 M535.49,42.97c-4.04,2.64-4.35,6.44-1.15,8.52l0.12,0.08
			c3.2,2.08,8.51,1.59,12.29-1.13c3.76-2.72,4.79-6.58,1.85-8.57l-0.13-0.09c-1.17-0.79-2.82-1.18-4.65-1.2
			C541.06,40.56,537.91,41.39,535.49,42.97 M345.72,46.74l-0.08,0.08c-1.91,1.86,0.69,5.1,5.47,7.29c4.79,2.2,9.77,2.49,11.43,0.59
			l0.06-0.07c1.65-1.89-0.44-5.23-4.97-7.39c-2.41-1.15-5.1-1.75-7.37-1.77C348.27,45.46,346.61,45.88,345.72,46.74 M550.14,53.29
			c-4.15,2.39-5.1,6.38-2.47,8.97l0.1,0.1c2.63,2.59,7.59,2.76,11.39,0.31c3.79-2.45,5.26-6.54,2.98-9.06l-0.1-0.11
			c-1.15-1.28-3.12-1.93-5.32-1.95C554.56,51.53,552.19,52.11,550.14,53.29 M339.62,57.09l-0.02,0.09
			c-0.47,2.14,3.56,5.41,8.64,7.36c5.09,1.94,9.24,1.79,9.6-0.4l0.01-0.09c0.36-2.19-3.12-5.55-8.1-7.44
			c-2.22-0.85-4.39-1.27-6.15-1.29C341.42,55.31,339.87,55.91,339.62,57.09 M561.86,66.13c-4.08,2.04-5.47,6.12-3.34,9.18l0.08,0.12
			c2.13,3.07,6.69,3.95,10.39,1.88c3.69-2.07,5.41-6.26,3.66-9.3l-0.08-0.13c-1.07-1.86-3.33-2.86-5.86-2.89
			C565.12,64.98,563.43,65.35,561.86,66.13 M340.89,68.82l0.04,0.1c0.95,2.39,6.06,5.64,11.08,7.3c5.03,1.66,8.1,1.07,7.17-1.38h0
			l-0.03-0.09c-0.93-2.45-5.52-5.77-10.58-7.37c-1.83-0.58-3.47-0.87-4.76-0.88C341.52,66.48,340.29,67.3,340.89,68.82 M571.1,81.35
			c-3.9,1.57-5.61,5.6-3.91,9.08l0.07,0.13c1.69,3.48,5.85,5.09,9.39,3.53c3.54-1.57,5.39-5.73,4.06-9.21l-0.05-0.15
			c-0.96-2.52-3.49-3.99-6.29-4.02C573.29,80.71,572.18,80.92,571.1,81.35 M349.16,81.74l0.1,0.11c2.24,2.59,8,5.77,12.62,7.12
			c4.63,1.35,6.48,0.31,4.39-2.35l-0.08-0.1c-2.09-2.66-7.46-5.88-12.23-7.17c-1.33-0.36-2.47-0.53-3.36-0.54
			C348.28,78.79,347.55,79.87,349.16,81.74 M363.43,95.62l0.14,0.12c3.28,2.76,9.26,5.8,13.22,6.82c3.97,1.02,4.59-0.44,1.53-3.27
			l-0.12-0.11c-3.05-2.83-8.8-5.9-12.99-6.85c-0.83-0.19-1.53-0.28-2.09-0.29C360.84,92.02,360.81,93.41,363.43,95.62 M578.27,98.59
			c-3.7,1.01-5.61,4.84-4.32,8.63l0.05,0.15c1.29,3.79,5.04,6.13,8.41,5.17c3.37-0.97,5.34-4.91,4.37-8.74l-0.04-0.16
			c-0.81-3.18-3.58-5.26-6.61-5.29C579.52,98.35,578.89,98.42,578.27,98.59 M381.89,109.71l0.15,0.11
			c3.58,2.53,8.78,5.05,11.58,5.63c2.81,0.58,2.35-1.04-1-3.64l-0.13-0.09c-3.35-2.6-8.51-5.12-11.55-5.64
			c-0.37-0.06-0.68-0.09-0.95-0.1C378.05,105.96,378.74,107.49,381.89,109.71 M583.58,117.39c-3.48,0.36-5.58,3.84-4.68,7.82h0
			l0.04,0.15c0.89,3.98,4.19,6.99,7.39,6.7c3.2-0.29,5.3-3.84,4.69-7.87l-0.03-0.17c-0.57-3.8-3.53-6.62-6.77-6.65
			C584,117.36,583.79,117.37,583.58,117.39 M581.93,143.71l0.02,0.15c0.45,4.01,3.24,7.6,6.23,8c2.99,0.41,5.26-2.58,5.06-6.66
			l-0.01-0.17c-0.21-4.08-2.99-7.65-6.24-7.98c-0.15-0.01-0.3-0.02-0.44-0.03C583.53,137,581.49,139.88,581.93,143.71
			 M582.88,162.03l0,0.15c-0.02,3.89,2.15,7.91,4.86,9c2.7,1.09,5.14-1.2,5.43-5.16l0.01-0.17c0.28-3.96-1.91-8.01-4.88-9.03
			c-0.46-0.16-0.9-0.23-1.33-0.24C584.63,156.55,582.89,158.74,582.88,162.03 M461.64,164.15c-0.03,0.91,3.09,3.91,6.63,6.77
			l0.15,0.12c3.54,2.85,6.19,4.51,6.26,3.65c0.06-0.85-2.53-3.94-6.12-6.85l-0.14-0.11c-2.89-2.35-5.52-3.83-6.45-3.84
			C461.77,163.89,461.64,163.97,461.64,164.15 M581.53,179.41l-0.02,0.14c-0.53,3.61,0.93,7.91,3.23,9.64
			c2.31,1.73,4.85,0.22,5.68-3.45l0.03-0.15c0.82-3.67-0.62-8.05-3.23-9.73c-0.69-0.45-1.38-0.66-2.03-0.67
			C583.4,175.18,581.92,176.76,581.53,179.41 M478.71,178.17c0.41,1.28,3.31,4.46,6.14,7.18l0.12,0.12
			c2.84,2.72,4.68,3.96,4.46,2.74c-0.23-1.23-2.61-4.52-5.64-7.28l-0.11-0.11c-2.19-2-4.03-3.16-4.73-3.16
			C478.69,177.65,478.59,177.82,478.71,178.17 M492.62,191.47c0.58,1.63,2.96,4.94,5.04,7.47l0.09,0.11
			c2.08,2.52,3.34,3.33,3.09,1.74c-0.26-1.59-2.22-5.02-4.63-7.58l-0.09-0.09c-1.53-1.64-2.77-2.51-3.31-2.52
			C492.5,190.6,492.41,190.88,492.62,191.47 M577.85,195.22l-0.04,0.12c-1.02,3.2-0.35,7.6,1.41,9.89c1.77,2.29,4.27,1.59,5.64-1.63
			l0.06-0.14c1.36-3.23,0.78-7.74-1.34-10.01c-0.8-0.86-1.68-1.28-2.51-1.28C579.72,192.16,578.48,193.23,577.85,195.22
			 M503.21,203.79c0.49,1.96,2.16,5.34,3.56,7.63l0.06,0.1c1.39,2.29,2.35,2.63,2.3,0.69c-0.06-1.94-1.48-5.44-3.31-7.75l-0.07-0.09
			c-1-1.26-1.81-1.9-2.26-1.91C503.11,202.46,502.98,202.9,503.21,203.79 M572.04,208.87l-0.05,0.1c-1.43,2.69-1.55,7.02-0.43,9.74
			c1.12,2.72,3.39,2.83,5.2,0.16l0.08-0.12c1.8-2.67,2.15-7.13,0.63-9.87c-0.75-1.36-1.74-2.04-2.72-2.05
			C573.75,206.83,572.76,207.51,572.04,208.87 M510.79,214.87c0.2,2.27,1.08,5.66,1.96,7.66l0.04,0.09
			c0.88,1.99,1.84,1.84,2.15-0.43c0.3-2.26-0.59-5.79-1.96-7.78v0l-0.05-0.08c-0.62-0.9-1.15-1.34-1.54-1.35
			C510.92,212.98,510.68,213.63,510.79,214.87 M564.63,219.98l-0.07,0.08c-1.71,2.11-2.52,6.23-2.1,9.26
			c0.43,3.03,2.24,3.87,4.33,1.81l0.09-0.09c2.08-2.07,3.3-6.3,2.49-9.37c-0.49-1.88-1.52-2.89-2.63-2.9
			C566.03,218.77,565.29,219.16,564.63,219.98 M516.13,224.46c-0.22,2.55-0.04,5.89,0.57,7.55l0.03,0.07
			c0.6,1.66,1.84,0.99,2.56-1.58c0.73-2.56,0.27-6.04-0.84-7.68l-0.04-0.06c-0.39-0.58-0.76-0.85-1.08-0.86
			C516.72,221.89,516.27,222.81,516.13,224.46 M556.33,228.32l-0.07,0.06c-1.82,1.5-3.16,5.29-3.4,8.5
			c-0.23,3.21,0.98,4.7,3.12,3.27l0.09-0.06c2.13-1.43,4.08-5.29,3.99-8.58c-0.06-2.39-1.04-3.78-2.27-3.8
			C557.32,227.72,556.83,227.91,556.33,228.32 M520.28,232.29c-0.66,2.79-0.99,6.02-0.38,7.3l0.02,0.05
			c0.6,1.27,2.27,0.07,3.36-2.77c1.1-2.84,0.88-6.19-0.15-7.42l-0.04-0.04c-0.26-0.31-0.53-0.46-0.79-0.46
			C521.53,228.94,520.78,230.2,520.28,232.29 M547.95,233.83l-0.07,0.04c-1.76,0.89-3.42,4.25-4.19,7.54
			c-0.76,3.28-0.21,5.31,1.75,4.52l0.09-0.04c1.95-0.8,4.39-4.2,4.95-7.57c0.48-2.82-0.39-4.68-1.7-4.69
			C548.51,233.61,548.23,233.68,547.95,233.83 M524.36,238.14c-1.01,3-1.55,6.06-0.72,6.9l0.04,0.04c0.82,0.84,2.95-0.91,4.26-3.97
			c1.32-3.06,1.11-6.23-0.01-7l-0.04-0.03c-0.17-0.12-0.35-0.18-0.53-0.18C526.34,233.89,525.23,235.61,524.36,238.14
			 M540.19,236.52L540.19,236.52l-0.06,0.01c-1.58,0.29-3.31,3.18-4.42,6.44c-1.05,3.13-1.13,5.52,0.3,5.54h0.01
			c0.06,0,0.12,0,0.19-0.01l0.07-0.01c1.62-0.2,4.23-3.07,5.27-6.42c1-3.16,0.3-5.55-1.1-5.57
			C540.36,236.5,540.28,236.51,540.19,236.52 M529.3,241.8c-1.17,3.16-1.61,5.97-0.4,6.32l0.05,0.01c1.19,0.35,3.68-1.96,4.99-5.2
			c1.32-3.24,0.88-6.12-0.45-6.38l-0.05-0.01c-0.07-0.01-0.13-0.02-0.2-0.02C531.94,236.5,530.43,238.8,529.3,241.8"/>
	</g>
</g>
<g>
	<polygon class="st2" points="58.06,106.41 43.01,128.3 28.04,106.41 17.25,106.41 17.25,157.72 27.47,157.72 27.47,121.74 
		43.01,143.17 58.49,121.74 58.49,157.72 68.7,157.72 68.7,106.41 	"/>
	<path class="st2" d="M77.93,120.1h10.65v37.62H77.93V120.1z M77.93,106.41h10.65v9.01H77.93V106.41z"/>
	<g>
		<path class="st2" d="M95.53,138.42c0-3.03,0.49-5.76,1.46-8.2c0.97-2.44,2.32-4.51,4.05-6.21c1.72-1.7,3.77-3.02,6.14-3.94
			c2.36-0.92,4.94-1.38,7.73-1.38c2.32,0,4.62,0.38,6.92,1.14c2.29,0.76,4.51,1.96,6.63,3.62l-5.32,6.81
			c-1.09-0.85-2.28-1.56-3.58-2.13c-1.3-0.57-2.76-0.85-4.37-0.85c-1.23,0-2.39,0.24-3.48,0.71c-1.09,0.47-2.04,1.18-2.84,2.13
			c-0.81,0.95-1.45,2.12-1.92,3.51c-0.47,1.4-0.71,2.99-0.71,4.79c0,3.79,0.85,6.66,2.56,8.62c1.7,1.96,3.83,2.95,6.39,2.95
			c1.7,0,3.17-0.27,4.4-0.82c1.23-0.54,2.41-1.31,3.55-2.31l5.82,6.25c-2.13,1.85-4.32,3.23-6.56,4.15
			c-2.25,0.92-4.74,1.38-7.49,1.38c-2.79,0-5.36-0.46-7.7-1.38c-2.34-0.92-4.39-2.25-6.14-3.98c-1.75-1.73-3.11-3.84-4.08-6.35
			C96.02,144.43,95.53,141.59,95.53,138.42"/>
		<path class="st2" d="M134.64,119.54h9.86l0.71,5.89c1.47-2.55,3.11-4.35,4.93-5.39c1.82-1.04,3.8-1.56,5.92-1.56
			c0.9,0,1.74,0.06,2.52,0.18c0.78,0.12,1.5,0.3,2.17,0.53l-1.56,9.79c-0.66-0.23-1.41-0.44-2.24-0.6c-0.83-0.16-1.76-0.25-2.8-0.25
			c-1.99,0-3.67,0.57-5.04,1.7c-1.37,1.13-2.65,2.81-3.83,5.04v22.85h-10.65V119.54z"/>
		<path class="st2" d="M173.39,138.34c0,3.74,0.72,6.72,2.17,8.94c1.45,2.22,3.56,3.34,6.35,3.34c2.7,0,4.77-1.11,6.21-3.34
			c1.44-2.22,2.16-5.2,2.16-8.94c0-3.55-0.76-6.37-2.27-8.48c-1.51-2.11-3.55-3.16-6.1-3.16c-2.6,0-4.67,1.06-6.21,3.16
			C174.16,131.97,173.39,134.8,173.39,138.34 M162.67,138.28c0-2.93,0.49-5.61,1.46-8.02c0.97-2.41,2.32-4.47,4.05-6.17
			c1.72-1.7,3.76-3.03,6.1-3.98c2.34-0.95,4.88-1.42,7.63-1.42c2.74,0,5.29,0.47,7.63,1.42c2.34,0.95,4.36,2.27,6.07,3.98
			c1.7,1.7,3.04,3.76,4.01,6.17c0.97,2.41,1.46,5.09,1.46,8.02c0,3.12-0.46,5.95-1.38,8.48c-0.92,2.53-2.22,4.67-3.9,6.42
			c-1.68,1.75-3.7,3.1-6.07,4.05c-2.37,0.94-4.97,1.42-7.81,1.42c-2.89,0-5.51-0.47-7.88-1.42c-2.37-0.95-4.39-2.3-6.07-4.05
			c-1.68-1.75-2.98-3.89-3.9-6.42C163.14,144.22,162.67,141.4,162.67,138.28"/>
		<path class="st2" d="M218.67,146.79c1.18,1.28,2.39,2.21,3.62,2.8c1.23,0.59,2.6,0.89,4.12,0.89c2.46,0,4.29-1.11,5.5-3.34
			c1.21-2.22,1.81-5.21,1.81-8.94c0-3.69-0.6-6.5-1.81-8.45c-1.21-1.94-3.04-2.91-5.5-2.91c-2.89,0-5.47,1.28-7.74,3.83V146.79z
			 M208.03,106.05h10.65v17.74c1.42-1.61,3.06-2.86,4.93-3.76c1.87-0.9,3.84-1.35,5.93-1.35c2.18,0,4.17,0.41,6,1.24
			c1.82,0.83,3.38,2.06,4.68,3.69c1.3,1.63,2.31,3.67,3.02,6.1c0.71,2.44,1.06,5.26,1.06,8.48c0,3.36-0.35,6.32-1.06,8.87
			c-0.71,2.56-1.72,4.68-3.02,6.39c-1.3,1.7-2.84,2.99-4.61,3.87c-1.77,0.87-3.72,1.31-5.85,1.31c-2.56,0-4.77-0.51-6.64-1.53
			c-1.87-1.02-3.54-2.31-5-3.87l-0.71,4.47h-9.37V106.05z"/>
	</g>
	<path class="st2" d="M251.32,120.1h10.65v37.62h-10.65V120.1z M251.32,106.41h10.65v9.01h-10.65V106.41z"/>
	<g>
		<path class="st2" d="M279.71,138.34c0,3.74,0.72,6.72,2.17,8.94c1.45,2.22,3.56,3.34,6.35,3.34c2.7,0,4.77-1.11,6.21-3.34
			c1.44-2.22,2.16-5.2,2.16-8.94c0-3.55-0.76-6.37-2.27-8.48c-1.51-2.11-3.55-3.16-6.1-3.16c-2.6,0-4.67,1.06-6.21,3.16
			C280.48,131.97,279.71,134.8,279.71,138.34 M268.99,138.28c0-2.93,0.49-5.61,1.46-8.02c0.97-2.41,2.32-4.47,4.05-6.17
			c1.72-1.7,3.76-3.03,6.1-3.98c2.34-0.95,4.88-1.42,7.63-1.42c2.74,0,5.29,0.47,7.63,1.42c2.34,0.95,4.36,2.27,6.07,3.98
			c1.7,1.7,3.04,3.76,4.01,6.17c0.97,2.41,1.46,5.09,1.46,8.02c0,3.12-0.46,5.95-1.39,8.48c-0.92,2.53-2.22,4.67-3.9,6.42
			c-1.68,1.75-3.7,3.1-6.07,4.05c-2.37,0.94-4.97,1.42-7.81,1.42c-2.89,0-5.51-0.47-7.88-1.42c-2.37-0.95-4.39-2.3-6.07-4.05
			c-1.68-1.75-2.98-3.89-3.9-6.42C269.45,144.22,268.99,141.4,268.99,138.28"/>
	</g>
	<rect x="314.34" y="106.05" class="st2" width="10.65" height="51.67"/>
	<g>
		<path class="st2" d="M342.8,138.34c0,3.74,0.72,6.72,2.17,8.94c1.44,2.22,3.56,3.34,6.35,3.34c2.7,0,4.77-1.11,6.21-3.34
			c1.44-2.22,2.16-5.2,2.16-8.94c0-3.55-0.76-6.37-2.27-8.48c-1.51-2.11-3.55-3.16-6.1-3.16c-2.6,0-4.67,1.06-6.21,3.16
			C343.57,131.97,342.8,134.8,342.8,138.34 M332.09,138.28c0-2.93,0.49-5.61,1.46-8.02c0.97-2.41,2.32-4.47,4.05-6.17
			c1.72-1.7,3.76-3.03,6.1-3.98c2.34-0.95,4.88-1.42,7.63-1.42c2.74,0,5.29,0.47,7.63,1.42c2.34,0.95,4.36,2.27,6.07,3.98
			c1.7,1.7,3.04,3.76,4.01,6.17c0.97,2.41,1.46,5.09,1.46,8.02c0,3.12-0.46,5.95-1.38,8.48c-0.92,2.53-2.22,4.67-3.9,6.42
			c-1.68,1.75-3.7,3.1-6.07,4.05c-2.37,0.94-4.97,1.42-7.81,1.42c-2.89,0-5.51-0.47-7.88-1.42c-2.37-0.95-4.39-2.3-6.07-4.05
			c-1.68-1.75-2.98-3.89-3.9-6.42C332.55,144.22,332.09,141.4,332.09,138.28"/>
		<path class="st2" d="M392.2,139.55c1.94,0,3.49-0.61,4.65-1.84c1.16-1.23,1.74-2.91,1.74-5.04c0-2.13-0.58-3.84-1.74-5.11
			c-1.16-1.28-2.71-1.92-4.65-1.92c-1.85,0-3.36,0.64-4.54,1.92c-1.18,1.28-1.77,2.98-1.77,5.11c0,2.13,0.59,3.81,1.77,5.04
			C388.84,138.94,390.35,139.55,392.2,139.55 M393.9,159.21c-1.51-0.09-2.9-0.21-4.15-0.35c-1.25-0.14-2.43-0.35-3.51-0.64
			c-1.56,0.95-2.34,2.27-2.34,3.98c0,1.37,0.7,2.37,2.09,2.98c1.4,0.61,3.75,0.92,7.06,0.92c3.45,0,5.98-0.28,7.6-0.85
			c1.61-0.57,2.41-1.44,2.41-2.63c0-0.62-0.14-1.12-0.43-1.53c-0.28-0.4-0.78-0.72-1.49-0.96c-0.71-0.24-1.66-0.43-2.84-0.57
			C397.12,159.43,395.65,159.31,393.9,159.21 M374.03,162.62c0-1.75,0.47-3.25,1.42-4.51c0.95-1.25,2.27-2.35,3.97-3.3
			c-1.51-1.51-2.27-3.24-2.27-5.18c0-1.37,0.37-2.59,1.1-3.66c0.73-1.06,1.72-1.95,2.95-2.66c-1.66-1.23-2.99-2.72-4.01-4.47
			c-1.02-1.75-1.52-3.83-1.52-6.25c0-2.08,0.43-3.98,1.28-5.71c0.85-1.73,2.01-3.19,3.48-4.4c1.46-1.21,3.2-2.14,5.21-2.8
			c2.01-0.66,4.2-0.99,6.57-0.99c4.31,0,7.92,1.06,10.86,3.19c1.37-0.95,2.89-1.67,4.54-2.17c1.65-0.5,3.74-0.75,6.24-0.75
			l0.07,6.74c-1.28,0-2.47,0.05-3.58,0.14c-1.11,0.09-2.19,0.28-3.23,0.57c0.99,1.84,1.49,3.9,1.49,6.17c0,2.27-0.46,4.27-1.38,6
			c-0.92,1.73-2.16,3.18-3.69,4.36c-1.54,1.18-3.29,2.08-5.25,2.7c-1.96,0.62-3.98,0.92-6.07,0.92c-1.94,0-3.88-0.26-5.82-0.78
			c-0.9,0.48-1.35,1.18-1.35,2.13c0,0.43,0.15,0.8,0.46,1.14c0.31,0.33,0.85,0.6,1.63,0.82s1.82,0.38,3.12,0.5
			c1.3,0.12,2.97,0.22,5,0.32c5.68,0.24,10.02,1.17,13.03,2.8c3.01,1.63,4.51,4.27,4.51,7.91c0,3.5-1.59,6.25-4.76,8.23
			c-3.17,1.99-8.09,2.98-14.76,2.98c-6.06,0-10.78-0.83-14.16-2.48C375.72,168.48,374.03,165.98,374.03,162.62"/>
	</g>
	<path class="st2" d="M419.67,120.1h10.65v37.62h-10.65V120.1z M419.67,106.41h10.65v9.01h-10.65V106.41z"/>
	<g>
		<path class="st2" d="M437.26,138.42c0-3.03,0.49-5.76,1.46-8.2c0.97-2.44,2.32-4.51,4.05-6.21c1.72-1.7,3.77-3.02,6.14-3.94
			c2.36-0.92,4.94-1.38,7.73-1.38c2.32,0,4.62,0.38,6.92,1.14c2.29,0.76,4.51,1.96,6.63,3.62l-5.32,6.81
			c-1.09-0.85-2.28-1.56-3.58-2.13c-1.3-0.57-2.76-0.85-4.37-0.85c-1.23,0-2.39,0.24-3.48,0.71c-1.09,0.47-2.04,1.18-2.84,2.13
			c-0.81,0.95-1.45,2.12-1.92,3.51c-0.47,1.4-0.71,2.99-0.71,4.79c0,3.79,0.85,6.66,2.56,8.62s3.83,2.95,6.39,2.95
			c1.7,0,3.17-0.27,4.4-0.82c1.23-0.54,2.41-1.31,3.55-2.31l5.82,6.25c-2.13,1.85-4.32,3.23-6.56,4.15
			c-2.25,0.92-4.74,1.38-7.49,1.38c-2.79,0-5.36-0.46-7.7-1.38c-2.34-0.92-4.39-2.25-6.14-3.98c-1.75-1.73-3.11-3.84-4.08-6.35
			C437.75,144.43,437.26,141.59,437.26,138.42"/>
		<path class="st2" d="M478.43,147.08c1.85,1.04,3.76,1.87,5.75,2.48c1.99,0.62,3.98,0.92,5.96,0.92c1.8,0,3.19-0.27,4.19-0.82
			c0.99-0.54,1.49-1.43,1.49-2.66c0-1.04-0.51-1.83-1.53-2.38c-1.02-0.54-2.28-1.03-3.8-1.46c-1.51-0.42-3.17-0.87-4.97-1.35
			c-1.8-0.47-3.45-1.15-4.97-2.02c-1.52-0.88-2.78-2.03-3.8-3.48c-1.02-1.44-1.53-3.35-1.53-5.71c0-1.94,0.41-3.66,1.24-5.15
			c0.83-1.49,1.93-2.73,3.3-3.72c1.37-0.99,2.98-1.75,4.83-2.27c1.85-0.52,3.78-0.78,5.82-0.78c2.08,0,4.29,0.25,6.64,0.75
			c2.34,0.49,4.91,1.38,7.7,2.66l-3.83,7.31c-1.85-0.9-3.72-1.56-5.61-1.99c-1.89-0.43-3.45-0.64-4.68-0.64
			c-1.56,0-2.8,0.27-3.72,0.82c-0.93,0.54-1.39,1.41-1.39,2.59c0,1.04,0.51,1.82,1.53,2.34c1.02,0.52,2.28,0.98,3.8,1.38
			c1.51,0.4,3.15,0.83,4.9,1.28c1.75,0.45,3.38,1.1,4.9,1.95c1.51,0.85,2.78,2,3.8,3.44c1.02,1.44,1.53,3.37,1.53,5.79
			c0,1.99-0.39,3.75-1.17,5.29c-0.78,1.54-1.87,2.82-3.26,3.83c-1.4,1.02-3.04,1.8-4.93,2.34c-1.89,0.54-3.98,0.82-6.25,0.82
			c-2.93,0-5.71-0.35-8.34-1.06c-2.63-0.71-5.17-1.75-7.63-3.12L478.43,147.08z"/>
		<path class="st2" d="M514.59,120.52c-0.68,0.37-1.22,0.91-1.61,1.6c-0.39,0.7-0.59,1.42-0.59,2.18c0,0.76,0.19,1.48,0.57,2.16
			c0.39,0.69,0.92,1.22,1.61,1.6c0.69,0.38,1.41,0.58,2.16,0.58c0.76,0,1.48-0.19,2.17-0.58c0.69-0.38,1.22-0.92,1.6-1.6
			c0.38-0.69,0.58-1.41,0.58-2.16c0-0.76-0.19-1.49-0.59-2.18c-0.39-0.7-0.93-1.23-1.61-1.6c-0.68-0.37-1.4-0.56-2.14-0.56
			C515.99,119.97,515.28,120.15,514.59,120.52 M518.46,121.27c0.55,0.3,0.98,0.73,1.3,1.29c0.31,0.56,0.47,1.15,0.47,1.76
			c0,0.61-0.16,1.19-0.46,1.74c-0.31,0.55-0.74,0.98-1.29,1.29c-0.55,0.31-1.13,0.47-1.74,0.47c-0.6,0-1.18-0.16-1.73-0.47
			c-0.55-0.31-0.98-0.74-1.29-1.29c-0.31-0.55-0.46-1.13-0.46-1.74c0-0.61,0.16-1.2,0.48-1.76c0.31-0.56,0.75-0.99,1.29-1.29
			c0.55-0.3,1.12-0.45,1.72-0.45C517.34,120.82,517.92,120.96,518.46,121.27 M515.71,126.64v-1.9h0.24c0.26,0,0.48,0.06,0.65,0.2
			c0.17,0.13,0.39,0.45,0.65,0.95l0.39,0.75h1.16l-0.54-0.93c-0.19-0.33-0.31-0.52-0.34-0.56c-0.13-0.18-0.24-0.29-0.31-0.35
			c-0.08-0.06-0.18-0.12-0.32-0.17c0.4-0.06,0.7-0.2,0.92-0.44c0.22-0.24,0.32-0.52,0.32-0.85c0-0.24-0.06-0.46-0.17-0.66
			c-0.11-0.2-0.26-0.35-0.43-0.44c-0.17-0.09-0.41-0.16-0.72-0.18c-0.11-0.01-0.6-0.01-1.47-0.01h-0.93v4.61H515.71z M515.71,122.76
			h0.38c0.53,0,0.87,0.02,1,0.06c0.13,0.04,0.24,0.12,0.31,0.22c0.07,0.1,0.11,0.21,0.11,0.34c0,0.13-0.04,0.25-0.11,0.35
			c-0.08,0.1-0.18,0.18-0.31,0.22c-0.13,0.04-0.47,0.06-1.01,0.06h-0.38V122.76z"/>
	</g>
</g>
</svg>
